<svg width="209" height="61" viewBox="0 0 209 61" fill="none" xmlns="http://www.w3.org/2000/svg">
<path d="M3.28453 12.6364H12.7661L22.7803 37.0682H23.2064L33.2206 12.6364H42.7021V49H35.2448V25.3317H34.9429L25.5324 48.8224H20.4543L11.0438 25.2429H10.7419V49H3.28453V12.6364Z" fill="white"/>
<path d="M82.002 46.5H86V50.5H70C58.954 50.5 50 41.546 50 30.5C50 19.454 58.954 10.5 70 10.5C81.046 10.5 90 19.454 90 30.5C90.0018 33.605 89.2799 36.6677 87.8916 39.445C86.5032 42.2224 84.4867 44.6379 82.002 46.5ZM70 26.5C71.0609 26.5 72.0783 26.0786 72.8284 25.3284C73.5786 24.5783 74 23.5609 74 22.5C74 21.4391 73.5786 20.4217 72.8284 19.6716C72.0783 18.9214 71.0609 18.5 70 18.5C68.9391 18.5 67.9217 18.9214 67.1716 19.6716C66.4214 20.4217 66 21.4391 66 22.5C66 23.5609 66.4214 24.5783 67.1716 25.3284C67.9217 26.0786 68.9391 26.5 70 26.5ZM62 34.5C63.0609 34.5 64.0783 34.0786 64.8284 33.3284C65.5786 32.5783 66 31.5609 66 30.5C66 29.4391 65.5786 28.4217 64.8284 27.6716C64.0783 26.9214 63.0609 26.5 62 26.5C60.9391 26.5 59.9217 26.9214 59.1716 27.6716C58.4214 28.4217 58 29.4391 58 30.5C58 31.5609 58.4214 32.5783 59.1716 33.3284C59.9217 34.0786 60.9391 34.5 62 34.5ZM78 34.5C79.0609 34.5 80.0783 34.0786 80.8284 33.3284C81.5786 32.5783 82 31.5609 82 30.5C82 29.4391 81.5786 28.4217 80.8284 27.6716C80.0783 26.9214 79.0609 26.5 78 26.5C76.9391 26.5 75.9217 26.9214 75.1716 27.6716C74.4214 28.4217 74 29.4391 74 30.5C74 31.5609 74.4214 32.5783 75.1716 33.3284C75.9217 34.0786 76.9391 34.5 78 34.5ZM70 42.5C71.0609 42.5 72.0783 42.0786 72.8284 41.3284C73.5786 40.5783 74 39.5609 74 38.5C74 37.4391 73.5786 36.4217 72.8284 35.6716C72.0783 34.9214 71.0609 34.5 70 34.5C68.9391 34.5 67.9217 34.9214 67.1716 35.6716C66.4214 36.4217 66 37.4391 66 38.5C66 39.5609 66.4214 40.5783 67.1716 41.3284C67.9217 42.0786 68.9391 42.5 70 42.5Z" fill="#F15623"/>
<path d="M103.833 12.6364L112.622 40.2642H112.959L121.766 12.6364H130.289L117.753 49H107.845L95.2922 12.6364H103.833ZM142.354 12.6364V49H134.665V12.6364H142.354ZM148.679 49V12.6364H173.182V18.9751H156.367V27.6399H171.921V33.9787H156.367V42.6612H173.253V49H148.679ZM199.021 23.0945C198.879 21.6622 198.269 20.5495 197.192 19.7564C196.115 18.9633 194.653 18.5668 192.806 18.5668C191.552 18.5668 190.492 18.7443 189.628 19.0994C188.764 19.4427 188.101 19.9221 187.639 20.5376C187.19 21.1532 186.965 21.8516 186.965 22.6328C186.941 23.2839 187.077 23.852 187.373 24.3374C187.681 24.8227 188.101 25.2429 188.634 25.598C189.166 25.9413 189.782 26.2431 190.48 26.5036C191.179 26.7521 191.925 26.9652 192.718 27.1428L195.985 27.924C197.571 28.2791 199.027 28.7526 200.353 29.3445C201.678 29.9363 202.826 30.6643 203.797 31.5284C204.768 32.3925 205.519 33.4105 206.052 34.5824C206.597 35.7543 206.875 37.0978 206.887 38.6129C206.875 40.8383 206.307 42.7678 205.182 44.4013C204.069 46.023 202.46 47.2836 200.353 48.1832C198.257 49.071 195.73 49.5149 192.771 49.5149C189.835 49.5149 187.278 49.0651 185.1 48.1655C182.934 47.2659 181.242 45.9342 180.022 44.1705C178.815 42.3949 178.182 40.1991 178.122 37.5831H185.562C185.645 38.8023 185.994 39.8203 186.61 40.6371C187.237 41.442 188.072 42.0516 189.113 42.4659C190.167 42.8684 191.356 43.0696 192.682 43.0696C193.984 43.0696 195.115 42.8802 196.073 42.5014C197.044 42.1226 197.796 41.5959 198.328 40.9212C198.861 40.2464 199.127 39.4711 199.127 38.5952C199.127 37.7784 198.885 37.0919 198.399 36.5355C197.926 35.9792 197.228 35.5057 196.304 35.1151C195.393 34.7244 194.274 34.3693 192.948 34.0497L188.989 33.0554C185.923 32.3097 183.502 31.1437 181.727 29.5575C179.951 27.9714 179.069 25.8348 179.081 23.1477C179.069 20.946 179.655 19.0225 180.839 17.3771C182.035 15.7318 183.674 14.4474 185.757 13.5241C187.841 12.6009 190.208 12.1392 192.86 12.1392C195.559 12.1392 197.914 12.6009 199.926 13.5241C201.951 14.4474 203.525 15.7318 204.649 17.3771C205.774 19.0225 206.354 20.9283 206.389 23.0945H199.021Z" fill="white"/>
</svg>
